<?xml version="1.0" encoding="UTF-8"?>
<!DOCTYPE svg PUBLIC "-//W3C//DTD SVG 1.1//EN" "http://www.w3.org/Graphics/SVG/1.1/DTD/svg11.dtd">
<svg xmlns="http://www.w3.org/2000/svg" version="1.1" width="1804px" height="138px" style="shape-rendering:geometricPrecision; text-rendering:geometricPrecision; image-rendering:optimizeQuality; fill-rule:evenodd; clip-rule:evenodd" xmlns:xlink="http://www.w3.org/1999/xlink">
<g><path style="opacity:1" fill="#2d3b55" d="M 933.5,62.5 C 933.607,60.6214 933.107,60.2881 932,61.5C 916.349,60.2247 900.682,59.2247 885,58.5C 872.594,59.3875 860.594,59.7209 849,59.5C 788.333,58.8333 727.667,58.1667 667,57.5C 646.906,58.4214 626.739,59.0881 606.5,59.5C 600.588,59.4896 594.755,59.1562 589,58.5C 573.994,60.1359 558.994,61.1359 544,61.5C 540.591,60.3781 537.091,60.2114 533.5,61C 533.833,61.3333 534.167,61.6667 534.5,62C 532.618,62.1981 530.952,62.6981 529.5,63.5C 354.678,66.8817 180.344,77.8817 6.5,96.5C 4.46945,81.9863 2.13611,67.6529 -0.5,53.5C -0.5,50.8333 -0.5,48.1667 -0.5,45.5C 184.02,26.5432 369.02,15.0432 554.5,11C 901.787,3.12305 1248.12,17.7897 1593.5,55C 1658.84,62.8348 1724.18,70.6682 1789.5,78.5C 1786.72,95.4843 1784.06,112.484 1781.5,129.5C 1499.9,91.8105 1217.23,69.4771 933.5,62.5 Z"/></g>
<g><path style="opacity:0.824" fill="#29354b" d="M 933.5,62.5 C 798.822,59.5672 664.155,59.9005 529.5,63.5C 530.952,62.6981 532.618,62.1981 534.5,62C 534.167,61.6667 533.833,61.3333 533.5,61C 537.091,60.2114 540.591,60.3781 544,61.5C 558.994,61.1359 573.994,60.1359 589,58.5C 594.755,59.1562 600.588,59.4896 606.5,59.5C 626.739,59.0881 646.906,58.4214 667,57.5C 727.667,58.1667 788.333,58.8333 849,59.5C 860.594,59.7209 872.594,59.3875 885,58.5C 900.682,59.2247 916.349,60.2247 932,61.5C 933.107,60.2881 933.607,60.6214 933.5,62.5 Z"/></g>
</svg>
